<svg xmlns="http://www.w3.org/2000/svg" viewBox="0 0 168.42 210.92"><defs><style>.cls-1{fill:#002f49;}</style></defs><title>Logo_dark</title><g id="Layer_2" data-name="Layer 2"><g id="Layer_1-2" data-name="Layer 1"><g id="Graphic"><path class="cls-1" d="M58.46,101.62q-7.05,0-10.08-2.77c-2-1.85-3-4.49-3-7.94q0-2.76.5-9.83T47,65.21H24.57L22.05,99.73a2.75,2.75,0,0,1-.5,1.45,2,2,0,0,1-1.52.44H13.1q-7,0-10.08-2.77C1,97,0,94.36,0,90.91c0-1.68.13-4.55.38-8.63s.58-8.71,1-13.92.84-10.71,1.26-16.51S3.48,40.6,3.91,35.47s.75-9.62,1-13.48.38-6.51.38-7.94c0-1.26.67-1.89,2-1.89h6.93q7.68,0,10.33,3.28t2.65,9.7c0,.67-.13,3.05-.38,7.12s-.59,9-1,14.68H48.38q.39-5.55.82-10.84T50,26.4q.32-4.41.5-7.62c.13-2.15.19-3.72.19-4.73,0-1.26.67-1.89,2-1.89H59.6q7.68,0,10.33,3.28t2.65,9.7c0,.42-.07,1.76-.19,4s-.32,5.13-.57,8.57S71.29,45,71,49.27s-.59,8.59-.88,13-.59,8.8-.88,13-.57,8.09-.82,11.53-.46,6.32-.63,8.63-.3,3.72-.38,4.22a2.75,2.75,0,0,1-.5,1.45,2,2,0,0,1-1.52.44Z"/><path class="cls-1" d="M86.27,100.27a20.7,20.7,0,0,1-5.83-2.68,9.4,9.4,0,0,1-3-3.39,8.31,8.31,0,0,1-.82-4.15,20.69,20.69,0,0,1,1-5q.56-1.8,1.77-5.05T82.87,71q2.3-5.67,5.77-14.43l8.55-21.68c.63-1.74,1.16-2.72,1.58-2.94a3.23,3.23,0,0,1,2,.24l4.69,1.46a22.45,22.45,0,0,1,5.85,2.62,8.93,8.93,0,0,1,3.05,3.33,8.2,8.2,0,0,1,.83,4.09,18.68,18.68,0,0,1-.88,4.74c-.38,1.2-1,3-1.94,5.34l-3.72,9.59q-2.35,6.06-6,15T94,100a3.32,3.32,0,0,1-1.2,1.74,3.16,3.16,0,0,1-2.2-.16Zm1.11-89.43A9.6,9.6,0,0,1,91,2.9Q94.69,0,100.86,0q5.42,0,7.88,2.21a7.47,7.47,0,0,1,2.45,5.85,9.92,9.92,0,0,1-3.46,7.75q-3.47,3.09-10.14,3.09Q87.38,18.9,87.38,10.84Z"/><path class="cls-1" d="M151.66,49.33c-.25,3.2-.52,6.34-.82,9.45s-.56,6-.81,8.82-.45,5.25-.57,7.44-.19,3.86-.19,5c0,2.18.25,3.63.76,4.34a2.84,2.84,0,0,0,2.51,1.07,5.25,5.25,0,0,0,2.4-.5,14.75,14.75,0,0,0,1.89-1.13l1.57-1.14a2.65,2.65,0,0,1,1.58-.5,2.09,2.09,0,0,1,1.64,1c.5.67.75,2.22.75,4.66q0,6.93-3.78,11t-13,4c-6,0-10.52-1.4-13.41-4.22s-4.35-7.12-4.35-12.91c0-1.26.06-2.75.19-4.48s.31-4,.57-6.74.56-6.17.94-10.2.78-9,1.2-15h-6.68c-.67,0-1.07-.14-1.2-.44a3.61,3.61,0,0,1-.19-1.32l.38-6.43a26.09,26.09,0,0,1,.44-3.21,7,7,0,0,1,1.26-2.84,6.5,6.5,0,0,1,2.71-2,11.9,11.9,0,0,1,4.66-.76q.88-2.27,2-5.42c.75-2.1,1.51-4.13,2.27-6.11a44.82,44.82,0,0,1,2.2-5c.71-1.35,1.37-2,1.95-2h3.66c3.53,0,6,1.09,7.31,3.28a14.62,14.62,0,0,1,2,7.81c0,1.68-.12,4.16-.38,7.43H166.4c1.35,0,2,.59,2,1.77l-.5,6.8A10.9,10.9,0,0,1,165.84,47c-1.22,1.56-3.72,2.33-7.5,2.33Z"/><path class="cls-1" d="M27,195.82c1-.08,2-.24,3-.42.61-.11,1.19-.36,1.8-.51.4-.1.62-.37.54-.74a.63.63,0,0,0-.82-.48c-.86.24-1.71.52-2.58.71a11.32,11.32,0,0,1-1.93.24c-.83,0-1.66,0-2.49,0v-.09a1.82,1.82,0,0,1-.33,0c-.35-.07-.5.21-.61.43a.57.57,0,0,0,.13.52,2,2,0,0,0,.88.31A19.22,19.22,0,0,0,27,195.82Z"/><path class="cls-1" d="M28.71,133.66c.29-.1.57-.23.86-.32a10.36,10.36,0,0,1,1.78-.46c1.09-.11,2.18-.13,3.28-.15a9.51,9.51,0,0,1,1.4.1.62.62,0,0,0,.75-.47.63.63,0,0,0-.54-.71l-3-.16c-.36,0-.71,0-1.07,0v0a.43.43,0,0,0-.16,0,18.44,18.44,0,0,0-3.73,1,.61.61,0,0,0-.34.73A.71.71,0,0,0,28.71,133.66Z"/><path class="cls-1" d="M25.24,193.08c.71,0,1.42,0,2.12-.11s1.45-.21,2.16-.36,1.2-.34,1.8-.49c.45-.11.76-.43.71-.78s-.41-.51-.87-.45l-.16,0-3.48.83a5.65,5.65,0,0,1-1,.1c-.82,0-1.63,0-2.44,0l0-.11c-.21.08-.48.1-.62.25a.68.68,0,0,0-.14.61A1.15,1.15,0,0,0,24,193,6.17,6.17,0,0,0,25.24,193.08Z"/><path class="cls-1" d="M31.93,196.45c-.29.09-.56.23-.86.31a10.36,10.36,0,0,1-1.78.46c-1.09.11-2.18.13-3.27.15a9.55,9.55,0,0,1-1.41-.1.6.6,0,1,0-.21,1.18c1,.06,2,.12,3,.16.35,0,.71,0,1.06,0v0a.92.92,0,0,0,.16,0,18.29,18.29,0,0,0,3.73-1,.61.61,0,0,0,.34-.73A.69.69,0,0,0,31.93,196.45Z"/><path class="cls-1" d="M24.56,176.75a2,2,0,0,0,.39-.33l-.35-.18a3,3,0,0,0-.57.1c-.36.14-.71.32-1.07.46a3,3,0,0,0-1.95,2,7.77,7.77,0,0,0-.05,3,.49.49,0,0,0,.58.48.55.55,0,0,0,.51-.65A14.65,14.65,0,0,1,22,180a4.22,4.22,0,0,1,.27-1.36C22.64,177.54,23.64,177.18,24.56,176.75Z"/><path class="cls-1" d="M21.46,176.71c-.32.15-.63.33-1,.48A2.84,2.84,0,0,0,19,178.74a6.08,6.08,0,0,0-.21,3.17.51.51,0,0,0,.65.45c.3-.06.33-.31.32-.57,0-.77-.06-1.55-.06-2.32a2.92,2.92,0,0,1,.58-1.65A5.11,5.11,0,0,1,22,176.56,4.61,4.61,0,0,0,21.46,176.71Z"/><path class="cls-1" d="M24.06,179.48c0,.7,0,1.41.06,2.11a.67.67,0,0,0,.65.65.9.9,0,0,0,.55-.41,1.44,1.44,0,0,0,0-.63c0-.69,0-1.38,0-2.07a2,2,0,0,1,.95-1.48,5.3,5.3,0,0,1,2.15-.92.58.58,0,0,0,.38-.35c0-.11-.13-.3-.25-.4a1.21,1.21,0,0,0-.43-.15c-.32.07-.64.13-.95.22s-.63.23-.94.35A3,3,0,0,0,24.06,179.48Z"/><path class="cls-1" d="M25.6,184.63c.36,0,.72-.08,1.08-.13l0,.07c1.3-.3,2.62-.59,3.92-.94.15,0,.33-.49.27-.66a.84.84,0,0,0-.62-.45,2.84,2.84,0,0,0-.93.18c-.63.15-1.25.33-1.89.45s-1.53.24-2.3.31a17.84,17.84,0,0,1-2.07,0,.89.89,0,0,0-.83.64.66.66,0,0,0,.68.61Q24.27,184.71,25.6,184.63Z"/><path class="cls-1" d="M24.28,187.54c.69,0,1.38-.07,2.15-.11l.68-.13c1.26-.28,2.52-.55,3.78-.85.36-.09.48-.4.36-.8a.55.55,0,0,0-.75-.33c-.58.15-1.16.33-1.74.44-1,.18-1.92.35-2.89.45-.77.08-1.56,0-2.34.06a2.61,2.61,0,0,0-.56.08.48.48,0,0,0-.37.59c0,.31.17.58.55.59S23.9,187.56,24.28,187.54Z"/><path class="cls-1" d="M30.14,144.79c.58-.16,1.16-.33,1.75-.44,1-.18,1.91-.36,2.88-.45.77-.08,1.56-.05,2.35-.07a2.09,2.09,0,0,0,.55-.08.48.48,0,0,0,.37-.59c0-.31-.17-.57-.55-.59s-.75,0-1.12,0l-2.16.12c-.18,0-.43.07-.68.13l-3.78.84c-.36.09-.48.41-.36.8A.55.55,0,0,0,30.14,144.79Z"/><path class="cls-1" d="M36.58,150.62c0-.7,0-1.4-.06-2.11a.67.67,0,0,0-.65-.64.88.88,0,0,0-.55.41,1.4,1.4,0,0,0,0,.62c0,.69,0,1.38,0,2.07a2,2,0,0,1-.95,1.48,5.27,5.27,0,0,1-2.16.92.59.59,0,0,0-.38.36c0,.1.13.3.25.4a1.55,1.55,0,0,0,.43.15c.32-.08.64-.14,1-.23s.62-.23.93-.34A3,3,0,0,0,36.58,150.62Z"/><path class="cls-1" d="M39.63,151.27a8,8,0,0,0,.06-3,.5.5,0,0,0-.59-.48.53.53,0,0,0-.51.64,17.11,17.11,0,0,1,.1,1.75,4.29,4.29,0,0,1-.28,1.37c-.41,1.05-1.41,1.41-2.33,1.84a1.7,1.7,0,0,0-.38.33l.35.18a2.86,2.86,0,0,0,.56-.1c.36-.14.71-.32,1.08-.45A3,3,0,0,0,39.63,151.27Z"/><path class="cls-1" d="M35.49,146.64c.68,0,1.38,0,2.07,0a.87.87,0,0,0,.83-.63.64.64,0,0,0-.68-.61c-.89,0-1.78.06-2.67.11-.36,0-.72.09-1.08.13v-.07c-1.31.31-2.63.59-3.92.94a.74.74,0,0,0-.28.67.85.85,0,0,0,.62.44,2.84,2.84,0,0,0,.93-.18c.63-.15,1.26-.33,1.9-.45S34.72,146.71,35.49,146.64Z"/><path class="cls-1" d="M51.53,162.78A15.9,15.9,0,0,0,58,159.57a17.12,17.12,0,0,0,4.1-5.1,22.43,22.43,0,0,0,2.14-6.11,32.53,32.53,0,0,0,.63-6.24,22.41,22.41,0,0,0-2-9.7,17.64,17.64,0,0,0-6.3-7.18,32.8,32.8,0,0,0-11.15-4.48A74.53,74.53,0,0,0,29,119.19c-2.6,0-5.65.08-9.13.25s-7.71.42-12.67.76a2.26,2.26,0,0,0-1.32.31,1.75,1.75,0,0,0-.63,1,9.21,9.21,0,0,0-.25,2c-.05.84-.07,1.93-.07,3.28,0,.67,0,1.49-.06,2.45s-.15,2.65-.31,5-.43,5.78-.76,10.15S3,154.68,2.39,162.15q-.75,9.07-1.19,15.06c-.3,4-.53,7.25-.7,9.76s-.29,4.48-.37,5.86S0,195.29,0,196.05a18.24,18.24,0,0,0,1.07,6.55A9.53,9.53,0,0,0,5,207.2,21.94,21.94,0,0,0,12.6,210a64.86,64.86,0,0,0,12.22.95q11.59,0,19.28-2.27a34.87,34.87,0,0,0,12.35-6.11A21.11,21.11,0,0,0,63,193.59a31.1,31.1,0,0,0,1.89-10.9,24.43,24.43,0,0,0-3-12.41Q58.84,165.06,51.53,162.78ZM39,197.87a6.69,6.69,0,0,1-2.8,3.42A21.12,21.12,0,0,1,34,202.53a18.9,18.9,0,0,1-2.92,1.07,2.42,2.42,0,0,1-2.85-1.69c-.1-.55-.2-1.1-.31-1.65-.06-.31-.22-.53-.57-.52a.61.61,0,0,0-.68.53,4.91,4.91,0,0,0,.95,3.27,2.19,2.19,0,0,0,.44.35,3.26,3.26,0,0,1-1.71-.3,3.93,3.93,0,0,1-1.92-3,3.1,3.1,0,0,0-.13-.87.79.79,0,0,0-.5-.36.42.42,0,0,0-.57.37,4.3,4.3,0,0,0,.08,1.24,4.09,4.09,0,0,0,1.62,2.72l-.06.11a9.14,9.14,0,0,1-1.25-.52A3.49,3.49,0,0,1,22,200.81c-.1-.49-.2-1-.29-1.46a.48.48,0,0,0-.55-.41.44.44,0,0,0-.42.54c.09.59.2,1.18.3,1.75A5.82,5.82,0,0,1,20,197.66l.44.14c.56.13,1.12.29,1.68.37a.56.56,0,0,0,.68-.58c0-.38-.15-.59-.58-.68-.59-.12-1.18-.24-1.76-.41a1.3,1.3,0,0,1-.87-1.21c0-.27.11-.29.33-.24.58.14,1.16.31,1.75.4s.83-.17.86-.61c0-.26-.41-.57-.77-.64a18.18,18.18,0,0,1-1.78-.38,1.27,1.27,0,0,1-.75-1.25c0-.24.16-.2.35-.16.65.13,1.31.25,2,.35a.52.52,0,0,0,.64-.46c0-.22-.23-.47-.4-.67s-.22-.09-.33-.11l-1.71-.31a1.17,1.17,0,0,1-.89-1.27c0-.08.2-.2.29-.19.71.09,1.4.21,2.11.31a.56.56,0,0,0,.64-.47.67.67,0,0,0-.48-.69c-.63-.12-1.27-.22-1.9-.33a1.08,1.08,0,0,1-1-1c0-.35.06-.44.41-.4l2,.25a.7.7,0,0,0,.71-.49.58.58,0,0,0-.52-.73c-.67-.1-1.35-.18-2-.3s-1-.64-.76-1.43c.69.06,1.39.12,2.09.21a.81.81,0,0,0,.8-.29.59.59,0,0,0-.47-.94l-2.24-.18a.81.81,0,0,1-.66-.79,8.61,8.61,0,0,0-.12-1.15,4.9,4.9,0,0,1,0-1.87,3.57,3.57,0,0,1,1.74-2.31,6.8,6.8,0,0,1,1.7-.81c.88-.29,1.78-.49,2.67-.69a14.07,14.07,0,0,1,1.82-.29c1.1-.12,2.2-.23,3.3-.28S31,175,32.11,175c.34,0,.49.05.38.46a5.25,5.25,0,0,0-.11,1.12c-.09,1.19-.16,2.38-.25,3.57s-.21,2.67-.33,4-.24,2.64-.35,3.88l-1.84.43a16.65,16.65,0,0,1-3.78.6c-.72,0-1.44,0-2.16,0-.55,0-.77.25-.73.69a.58.58,0,0,0,.58.57,20.09,20.09,0,0,0,2.33-.05c1.2-.12,2.4-.29,3.59-.49a18.2,18.2,0,0,0,1.85-.51c.14,1.27.86,2,1.88,1.86-.14-.16-.27-.33-.41-.48a1.58,1.58,0,0,1-.31-1.43c.06-.37.08-.75.11-1.12.08-1.18.15-2.36.25-3.54.12-1.45.27-2.9.39-4.36.07-.8.11-1.61.17-2.41.1-1.16.22-2.32.32-3.48a3.34,3.34,0,0,0-.8-2.95c-.22-.21-.47-.37-.74-.58.44.11.85.2,1.24.32a17,17,0,0,1,1.87.6,2.78,2.78,0,0,1,1.51,2.9c-.12,1-.18,2-.22,3,0,.23.19.46.26.69.12.4.22.8.33,1.21s0,.59-.37.78-.58.35-.52.79a3.71,3.71,0,0,1-.09.87c.25-.1.44-.16.61-.25.48-.24.66-.15.72.38s-.1.9-.88,1.16c-.43.14-.66.36-.6.84a4,4,0,0,1-.08.83,10.75,10.75,0,0,0,1.16-.52c.55-.31.69-.24.74.4s-.14.8-.76,1.08c-.32.15-.62.31-.94.44a.52.52,0,0,0-.36.59,9.22,9.22,0,0,1-.07,1c.4-.17.75-.29,1.08-.44a8.61,8.61,0,0,0,.83-.49c.31-.18.54-.06.55.31s.11.51,0,.65a2.33,2.33,0,0,1-.76.63c-.5.29-1,.52-1.56.79-.11.06-.29.16-.29.25a1.56,1.56,0,0,1-.5,1.34l.1.11c.94-.46,1.88-.92,2.8-1.4.33-.17.45-.15.54.2.17.64.09.9-.65,1.32s-1.76.89-2.64,1.34c-.27.13-.53.3-.48.66s.41.63.69.57a3.78,3.78,0,0,0,.9-.34c.57-.27,1.12-.57,1.68-.86.08,0,.16-.1.24-.13l.51-.17c0,.28.24.66.12.81a4.88,4.88,0,0,1-1.25,1.15,19.6,19.6,0,0,1-2.11,1,.64.64,0,0,0-.33.9.65.65,0,0,0,.84.28c.81-.4,1.63-.8,2.44-1.22a7.26,7.26,0,0,0,.69-.5A5.74,5.74,0,0,1,39,197.87ZM28.7,165.1c.15-1.84.3-3.68.45-5.55h3.22c-.14,1.8-.29,3.61-.43,5.45h0c-.15,1.84-.3,3.68-.45,5.56H28.27c.14-1.81.29-3.62.43-5.46Zm-.34-7.43,2.56-.15c.65-.05,1.3-.06,1.95-.15a1.76,1.76,0,0,0,1.48-1.07c.14-.32.23-.65.35-1l2.9-.45c-.08.52-.14,1-.21,1.43a2.6,2.6,0,0,1-2.72,2c-.73,0-1.47,0-2.2.07-1,0-1.92.08-2.88.07C29.07,158.46,28.74,158.07,28.36,157.67Zm2.69,14c.52,0,.85.39,1.23.79l-2.56.16c-.65,0-1.3.06-1.95.14a1.77,1.77,0,0,0-1.48,1.07c-.14.32-.23.66-.34,1l-2.9.46c.07-.53.13-1,.21-1.44a2.58,2.58,0,0,1,2.71-2c.73,0,1.47-.05,2.2-.08C29.13,171.67,30.09,171.62,31.05,171.64Zm11.94-21A3.54,3.54,0,0,1,41.25,153a6.8,6.8,0,0,1-1.7.81,26.8,26.8,0,0,1-2.67.69,16.26,16.26,0,0,1-1.81.3c-1.1.11-2.2.22-3.31.28s-2.15,0-3.22.07c-.35,0-.5,0-.38-.46a5.19,5.19,0,0,0,.1-1.12c.09-1.19.16-2.38.25-3.57s.21-2.66.33-4,.24-2.64.35-3.88l1.84-.42a16.74,16.74,0,0,1,3.78-.6c.72,0,1.44,0,2.17,0,.54,0,.77-.25.72-.69a.56.56,0,0,0-.58-.56,22.6,22.6,0,0,0-2.33,0c-1.2.12-2.4.29-3.58.49-.63.11-1.24.34-1.86.51-.14-1.27-.86-2-1.88-1.86.14.17.27.33.42.48a1.57,1.57,0,0,1,.3,1.43c-.06.37-.08.75-.11,1.13-.08,1.17-.15,2.35-.24,3.53-.13,1.45-.28,2.91-.4,4.36-.07.8-.1,1.61-.17,2.41-.1,1.16-.22,2.32-.31,3.49a3.33,3.33,0,0,0,.8,3c.21.2.46.36.73.57-.44-.11-.85-.2-1.24-.31a17,17,0,0,1-1.87-.61,2.79,2.79,0,0,1-1.51-2.89c.12-1,.18-2,.22-3,0-.23-.19-.45-.26-.69-.12-.4-.22-.8-.33-1.2s0-.6.37-.78.58-.36.52-.8a4.48,4.48,0,0,1,.09-.87c-.25.1-.44.16-.61.25-.48.25-.66.15-.72-.38s.11-.89.88-1.15c.43-.15.66-.36.6-.84a4.86,4.86,0,0,1,.08-.84c-.43.19-.81.33-1.16.52-.55.31-.69.24-.73-.39s.14-.81.76-1.09c.31-.15.62-.3.94-.43a.54.54,0,0,0,.35-.6,7.27,7.27,0,0,1,.08-1c-.41.16-.76.28-1.09.44s-.55.32-.83.48-.53.06-.55-.3-.1-.52,0-.66a2.44,2.44,0,0,1,.76-.63c.51-.29,1-.52,1.56-.79.12-.06.29-.16.29-.24a1.59,1.59,0,0,1,.51-1.34l-.11-.12c-.94.47-1.87.92-2.8,1.4-.33.17-.45.15-.54-.19-.17-.65-.08-.91.66-1.33s1.75-.89,2.63-1.33c.27-.14.53-.31.48-.67a.69.69,0,0,0-.69-.57,4.27,4.27,0,0,0-.9.34c-.57.27-1.12.57-1.67.86a1.49,1.49,0,0,1-.25.13,5.08,5.08,0,0,1-.51.17c0-.27-.24-.66-.12-.8A4.92,4.92,0,0,1,23,136a19.76,19.76,0,0,1,2.12-1,.64.64,0,0,0,.33-.9.66.66,0,0,0-.85-.28c-.81.41-1.63.8-2.43,1.22a7.29,7.29,0,0,0-.7.5,5.83,5.83,0,0,1,.18-3.29,6.6,6.6,0,0,1,2.79-3.41,19.5,19.5,0,0,1,2.16-1.25,20,20,0,0,1,2.92-1.07,2.43,2.43,0,0,1,2.85,1.7c.1.55.2,1.1.31,1.65a.55.55,0,0,0,.57.52.62.62,0,0,0,.68-.54,4.92,4.92,0,0,0-1-3.27,2.6,2.6,0,0,0-.44-.35,3.36,3.36,0,0,1,1.71.3,4,4,0,0,1,1.92,3,3,3,0,0,0,.13.86.75.75,0,0,0,.5.36.42.42,0,0,0,.57-.37,4.58,4.58,0,0,0-.07-1.23,4.1,4.1,0,0,0-1.63-2.73l.06-.11a8.65,8.65,0,0,1,1.25.52,3.46,3.46,0,0,1,1.59,2.44c.1.48.2,1,.29,1.45a.47.47,0,0,0,.55.41.43.43,0,0,0,.42-.54c-.09-.59-.2-1.17-.3-1.75a5.89,5.89,0,0,1,1.1,3.57,4.45,4.45,0,0,0-.45-.13,16.25,16.25,0,0,0-1.68-.37.55.55,0,0,0-.68.57c0,.38.16.59.58.68.59.12,1.18.24,1.76.41a1.3,1.3,0,0,1,.87,1.21c0,.27-.11.29-.32.24-.59-.14-1.17-.3-1.76-.4s-.83.17-.85.61c0,.27.4.58.77.64a18,18,0,0,1,1.77.39,1.27,1.27,0,0,1,.76,1.24c0,.24-.17.2-.35.17-.66-.14-1.32-.25-2-.35a.51.51,0,0,0-.64.46c0,.22.24.46.4.67s.22.09.34.11l1.7.3a1.17,1.17,0,0,1,.89,1.27.34.34,0,0,1-.29.19c-.7-.08-1.4-.21-2.11-.31a.57.57,0,0,0-.64.47.68.68,0,0,0,.48.7l1.9.32a1.09,1.09,0,0,1,1,1c0,.35,0,.44-.41.4l-2-.25a.69.69,0,0,0-.7.5.56.56,0,0,0,.51.72c.67.1,1.35.18,2,.31s1,.63.76,1.43c-.69-.07-1.4-.13-2.1-.22a.81.81,0,0,0-.8.29.59.59,0,0,0,.47.94l2.24.18a.83.83,0,0,1,.67.79,8.93,8.93,0,0,0,.11,1.16A4.85,4.85,0,0,1,43,150.67Z"/><path class="cls-1" d="M41.26,147.75c-.31.05-.34.3-.33.56,0,.78.06,1.55.06,2.32a2.91,2.91,0,0,1-.57,1.65,5,5,0,0,1-1.77,1.26,2.46,2.46,0,0,0,.53-.15c.32-.14.63-.33,1-.47a2.89,2.89,0,0,0,1.55-1.56,6.08,6.08,0,0,0,.21-3.17A.49.49,0,0,0,41.26,147.75Z"/><path class="cls-1" d="M36.69,137.06a6.93,6.93,0,0,0-1.29,0c-.71,0-1.42,0-2.12.11s-1.44.21-2.15.36-1.2.34-1.81.49c-.44.11-.76.44-.71.79s.42.5.88.44l.15,0c1.16-.28,2.32-.56,3.48-.82a4.28,4.28,0,0,1,1-.1c.81,0,1.62,0,2.44,0l0,.11a1.5,1.5,0,0,0,.62-.25c.13-.14.23-.48.14-.6A1.13,1.13,0,0,0,36.69,137.06Z"/><path class="cls-1" d="M29.12,136.43c.86-.24,1.71-.51,2.58-.7a11.43,11.43,0,0,1,1.94-.24c.82,0,1.65,0,2.48,0v.08a1.82,1.82,0,0,1,.33,0c.35.08.5-.21.61-.42a.57.57,0,0,0-.13-.53,1.85,1.85,0,0,0-.87-.3,17.63,17.63,0,0,0-2.41,0c-1,.09-2,.24-3,.42-.61.12-1.19.36-1.8.51-.4.11-.62.37-.54.74A.63.63,0,0,0,29.12,136.43Z"/><path class="cls-1" d="M92.78,209.66a20.64,20.64,0,0,1-6.36-.82,9.51,9.51,0,0,1-3.91-2.33,8.23,8.23,0,0,1-2-3.72,21,21,0,0,1-.56-5.11c0-1.26.06-3,.19-5.35s.35-5.5.69-9.58.73-9.24,1.2-15.49,1-14,1.7-23.25c.08-1.85.29-2.94.63-3.28a3.3,3.3,0,0,1,2-.37h4.92a22.32,22.32,0,0,1,6.36.75,9,9,0,0,1,3.91,2.27,8.33,8.33,0,0,1,2,3.65,18.67,18.67,0,0,1,.57,4.79c0,1.26-.09,3.15-.25,5.67s-.4,5.94-.7,10.27-.69,9.7-1.19,16.13-1.14,14.17-1.89,23.24a3.4,3.4,0,0,1-.63,2,3.16,3.16,0,0,1-2.15.51Zm-9-84.17a9.58,9.58,0,0,1,3.66-7.94q3.65-2.89,9.82-2.9c3.62,0,6.24.74,7.88,2.21a7.48,7.48,0,0,1,2.46,5.86,9.93,9.93,0,0,1-3.47,7.74q-3.47,3.09-10.14,3.09Q83.83,133.55,83.83,125.49Z"/><path class="cls-1" d="M151.66,157.37q-.37,4.78-.82,9.45t-.81,8.81q-.39,4.17-.57,7.44c-.13,2.18-.19,3.86-.19,5,0,2.18.25,3.63.76,4.35a2.86,2.86,0,0,0,2.51,1.07,5.25,5.25,0,0,0,2.4-.51,13.68,13.68,0,0,0,1.89-1.13l1.57-1.13a2.6,2.6,0,0,1,1.58-.51,2.11,2.11,0,0,1,1.64,1c.5.67.75,2.23.75,4.66q0,6.93-3.78,11t-13,4c-6,0-10.52-1.41-13.41-4.23s-4.35-7.11-4.35-12.91c0-1.26.06-2.75.19-4.47s.31-4,.57-6.74.56-6.18.94-10.21.78-9,1.2-15h-6.68q-1,0-1.2-.45a3.61,3.61,0,0,1-.19-1.32l.38-6.43a26.09,26.09,0,0,1,.44-3.21,6.91,6.91,0,0,1,1.26-2.83,6.51,6.51,0,0,1,2.71-2,12.1,12.1,0,0,1,4.66-.75c.59-1.52,1.26-3.32,2-5.42s1.51-4.14,2.27-6.11a44.24,44.24,0,0,1,2.2-5c.71-1.34,1.37-2,1.95-2h3.66c3.53,0,6,1.1,7.31,3.28a14.64,14.64,0,0,1,2,7.81c0,1.68-.12,4.16-.38,7.44H166.4c1.35,0,2,.58,2,1.76l-.5,6.8a10.9,10.9,0,0,1-2.08,6.11q-1.83,2.34-7.5,2.34Z"/></g></g></g></svg>