<?xml version="1.0" encoding="UTF-8"?>
<svg width="17px" height="17px" viewBox="0 0 17 17" version="1.1" xmlns="http://www.w3.org/2000/svg" xmlns:xlink="http://www.w3.org/1999/xlink">
    <defs>
        <path d="M16.5735861,0.0168316832 L14.9775723,0.0168316832 C14.7468772,0.0168316832 14.5630416,0.209689109 14.5740832,0.440114851 L14.7075921,3.22606139 C13.1763802,1.42729307 10.8958891,0.286138614 8.34854851,0.286138614 C3.74807921,0.286138614 -0.0034,4.04047921 -2.30926544e-06,8.64094851 C0.0034,13.2488238 3.73986535,16.9831683 8.34851485,16.9831683 C10.5004792,16.9831683 12.4622455,16.1689525 13.9426257,14.8318099 C14.1147465,14.6763525 14.1228594,14.4089644 13.9588515,14.2449564 L12.8152733,13.1013782 C12.6649327,12.9510376 12.4234317,12.9425881 12.2638673,13.083099 C11.2202693,14.0022099 9.85010297,14.5594059 8.34851485,14.5594059 C5.0741802,14.5594059 2.42376238,11.9095604 2.42376238,8.63465347 C2.42376238,5.36031881 5.07360792,2.70990099 8.34851485,2.70990099 C10.3983446,2.70990099 12.2031723,3.74868515 13.266699,5.32891089 L9.84902574,5.16513861 C9.6186,5.15409703 9.42574257,5.33793267 9.42574257,5.56862772 L9.42574257,7.16464158 C9.42574257,7.38772871 9.60661584,7.56860198 9.82970297,7.56860198 L16.5735861,7.56860198 C16.7966733,7.56860198 16.9775465,7.38772871 16.9775465,7.16464158 L16.9775465,0.420792079 C16.9775465,0.19770495 16.7966733,0.0168316832 16.5735861,0.0168316832 Z" id="path-1"></path>
    </defs>
    <g id="Symbols" stroke="none" stroke-width="1" fill="none" fill-rule="evenodd">
        <g id="New-Post" transform="translate(-74.000000, -33.000000)">
            <g id="Post-Card">
                <g id="Solid/redo" transform="translate(74.000000, 33.000000)">
                    <mask id="mask-2" fill="white">
                        <use xlink:href="#path-1"></use>
                    </mask>
                    <g id="Mask"></g>
                    <g id="Color/Black" mask="url(#mask-2)" fill="#FCA07F" fill-rule="evenodd">
                        <rect id="Black" x="0" y="0" width="17" height="17"></rect>
                    </g>
                </g>
            </g>
        </g>
    </g>
</svg>
